<svg width="192" height="192" viewBox="0 0 192 192" fill="none" xmlns="http://www.w3.org/2000/svg">
  <!-- Background with proper padding for maskable -->
  <rect width="192" height="192" fill="#0a0a0a"/>
  
  <!-- Centered movie camera icon -->
  <g transform="translate(48, 64)">
    <!-- Camera body -->
    <rect width="96" height="64" rx="8" fill="#dc2626"/>
    
    <!-- Lenses -->
    <circle cx="24" cy="24" r="12" fill="#0a0a0a"/>
    <circle cx="72" cy="24" r="12" fill="#0a0a0a"/>
    
    <!-- Inner lens reflections -->
    <circle cx="24" cy="24" r="6" fill="#333"/>
    <circle cx="72" cy="24" r="6" fill="#333"/>
    
    <!-- Film strip -->
    <rect x="16" y="44" width="64" height="12" fill="#0a0a0a"/>
    <rect x="20" y="47" width="3" height="6" fill="#dc2626"/>
    <rect x="26" y="47" width="3" height="6" fill="#dc2626"/>
    <rect x="32" y="47" width="3" height="6" fill="#dc2626"/>
    <rect x="38" y="47" width="3" height="6" fill="#dc2626"/>
    <rect x="44" y="47" width="3" height="6" fill="#dc2626"/>
    <rect x="50" y="47" width="3" height="6" fill="#dc2626"/>
    <rect x="56" y="47" width="3" height="6" fill="#dc2626"/>
    <rect x="62" y="47" width="3" height="6" fill="#dc2626"/>
    <rect x="68" y="47" width="3" height="6" fill="#dc2626"/>
  </g>
</svg>
